General
      Complete name : Jaws.1975.HDRip.H264.AAC.5.1ch.Gopo.mp4
      Format : MPEG-4
      Format profile : Base Media
      Codec ID : isom
      File size : 2.00 GiB
      Duration : 2h 3mn
      Overall bit rate : 2 318 Kbps
      Encoded date : UTC 2010-01-05 13:19:09
      Tagged date : UTC 2010-01-05 13:19:09
      Writing application : Yamb 2.1.0.0 [http://yamb.unite-video.com]
   Video #1
      ID : 1
      Format : AVC
      Format/Info : Advanced Video Codec
      Format profile : High@L4.1
      Format settings, CABAC : Yes
      Format settings, ReFrames : 5 frames
      Codec ID : avc1
      Codec ID/Info : Advanced Video Coding
      Duration : 2h 3mn
      Bit rate mode : Variable
      Bit rate : 1 979 Kbps
      Maximum bit rate : 10.7 Mbps
      Width : 1 280 pixels
      Height : 532 pixels
      Display aspect ratio : 2.40:1
      Frame rate mode : Constant
      Frame rate : 23.976 fps
      Resolution : 24 bits
      Colorimetry : 4:2:0
      Scan type : Progressive
      Bits/(Pixel*Frame) : 0.121
      Stream size : 1.71 GiB (85%)
      Writing library : x264 core 79 r1360 528c100
      Encoding settings : cabac=1 / ref=5 / deblock=1:0:0 / analyse=0x3:0x113 / me=umh / subme=8 / psy=1 / psy_rd=1.0:0.0 / mixed_ref=1 / me_range=16 / chroma_me=1 / trellis=2 / 8x8dct=1 / cqm=0 / deadzone=21,11 / chroma_qp_offset=-2 / threads=3 / nr=0 / decimate=1 / mbaff=0 / constrained_intra=0 / bframes=3 / b_pyramid=0 / b_adapt=2 / b_bias=0 / direct=3 / wpredb=1 / wpredp=2 / keyint=250 / keyint_min=25 / scenecut=40 / rc_lookahead=30 / rc=2pass / mbtree=1 / bitrate=1979 / ratetol=1.0 / qcomp=0.50 / qpmin=10 / qpmax=51 / qpstep=4 / cplxblur=20.0 / qblur=0.5 / vbv_maxrate=24000 / vbv_bufsize=24000 / ip_ratio=1.10 / aq=1:1.00
      Encoded date : UTC 2010-01-04 18:30:19
      Tagged date : UTC 2010-01-05 13:24:17
   Audio #2
      ID : 2
      Format : AAC
      Format/Info : Advanced Audio Codec
      Format version : Version 4
      Format profile : LC
      Format settings, SBR : No
      Codec ID : 40
      Duration : 2h 3mn
      Bit rate mode : Variable
      Bit rate : 335 Kbps
      Maximum bit rate : 423 Kbps
      Channel(s) : 6 channels
      Channel positions : Front: L C R, Rear: L R, LFE
      Sampling rate : 48.0 KHz
      Resolution : 16 bits
      Stream size : 297 MiB (14%)
      Encoded date : UTC 2010-01-05 13:23:46
      Tagged date : UTC 2010-01-05 13:24:17
	Sample : YES
	Subtitle : English,Romanian

PLOT

When a gigantic great white shark begins to menace the small island community of Amity, a police chief, a marine scientist and grizzled fisherman set out to stop it.
Director: Steven Spielberg
CASTING 
     
      Roy Scheider	... 	Brody
	Robert Shaw	... 	Sam Quint
	Richard Dreyfuss	... 	Hooper
	Lorraine Gary	... 	Ellen Brody
	Murray Hamilton	... 	Vaughn
	Carl Gottlieb	... 	Meadows
	Jeffrey Kramer	... 	Hendricks (as Jeffrey C. Kramer)
	Susan Backlinie	... 	Chrissie
	Jonathan Filley	... 	Cassidy
	Ted Grossman	... 	Estuary Victim
	Chris Rebello	... 	Michael Brody
	Jay Mello	... 	Sean Brody
	Lee Fierro	... 	Mrs. Kintner
	Jeffrey Voorhees	... 	Alex Kintner
	Craig Kingsbury	... 	Ben Gardner

SOURCE: Chelusti.HDTVRip.720p.x264.mkv

Notes: For best performance I suggest you to use KMPlayer(find it with google) for playback
I haven't tested the movies on a PS3 or Xbox or other devices than PC because I don't own one of them but feel free to test them if you have the oportunity.
